<svg xmlns="http://www.w3.org/2000/svg" viewBox="0 0 512 512">
<g transform="translate(256, 250)">
    <!-- Main sharp upward pointing shape - like a stylized pen/rocket -->
    <path d="
      M 0 -190
      L 60 80
      L 30 50
      L 15 160
      L 0 120
      L -15 160
      L -30 50
      L -60 80
      Z
    " fill="white" stroke="none"/>
    
    <!-- Dynamic swoosh/curve cutting across from left to bottom-right -->
    <path d="
      M -95 -20
      C -60 -50, -20 -30, 0 0
      C 25 35, 55 70, 100 60
      C 120 55, 130 35, 115 20
      C 100 5, 70 25, 50 50
      C 30 75, -5 80, -35 60
      C -55 45, -70 15, -50 -5
      Z
    " fill="#000000" stroke="none"/>
    
    <!-- Thinner white swoosh on top of the cut -->
    <path d="
      M -80 -15
      C -50 -40, -15 -25, 10 0
      C 35 30, 65 55, 100 48
      L 95 58
      C 55 68, 25 40, 0 10
      C -20 -15, -50 -30, -75 -5
      Z
    " fill="white" stroke="none"/>
  </g>
</svg>
